<svg width="307" height="90" viewBox="0 0 307 90" fill="none" xmlns="http://www.w3.org/2000/svg">
<path fill-rule="evenodd" clip-rule="evenodd" d="M20.9624 40.7132C17.2765 46.2017 18.0486 52.9339 25.3687 54.1938C30.6753 55.1005 39.1595 53.1342 50.8213 48.295C51.5019 48.0129 52.1921 47.7222 52.892 47.4228C40.6896 57.1895 29.3691 61.8575 18.9305 61.4268C9.24562 61.0165 -0.700895 56.9171 0.0388751 45.5718C1.80915 18.42 48.7797 0.135678 72.4362 0C65.6766 2.32834 59.0914 5.13515 52.7305 8.39914C57.6611 7.77726 62.6465 7.71765 67.5905 8.22146C60.5567 10.2766 53.7404 13.0139 47.2388 16.3945C52.1574 15.1961 57.1898 14.5258 62.2506 14.3948C48.9509 18.5589 29.0127 28.7412 20.9624 40.7132ZM67.6584 49.2868C71.3282 43.7983 70.5723 37.0661 63.2521 35.8062C57.8228 34.8715 49.0705 36.9465 36.9951 42.0312L36.139 42.3963L35.7417 42.5643L36.1067 42.2768C36.3535 42.0797 36.6075 41.8836 36.8572 41.6908C37.0782 41.5201 37.296 41.3519 37.5023 41.1881C37.9076 40.8662 38.3157 40.5663 38.7214 40.2682C38.7555 40.2431 38.7895 40.2181 38.8235 40.1931C49.8544 32.0374 60.1476 28.1608 69.7033 28.5636C79.3881 28.9738 89.3346 33.0732 88.5949 44.4185C86.8246 71.5704 39.854 89.8546 16.2008 90C22.9599 87.6703 29.545 84.8635 35.9064 81.6009C30.9705 82.224 25.9797 82.2836 21.0303 81.7785C28.0637 79.7221 34.8798 76.9848 41.382 73.6055C36.4634 74.8039 31.431 75.4742 26.3702 75.6052C39.6699 71.4411 59.6049 61.2717 67.6584 49.2868Z" fill="url(#paint0_linear)"/>
<path d="M136.698 51.7781C136.698 49.9576 136.048 48.5391 134.748 47.5225C133.471 46.5058 131.213 45.4538 127.974 44.3662C124.735 43.2787 122.087 42.2266 120.03 41.2099C113.339 37.9237 109.994 33.408 109.994 27.6629C109.994 24.8021 110.821 22.2842 112.476 20.1091C114.155 17.9104 116.519 16.2081 119.569 15.0024C122.619 13.773 126.047 13.1583 129.854 13.1583C133.565 13.1583 136.887 13.8203 139.819 15.1442C142.774 16.4682 145.067 18.3596 146.699 20.8184C148.33 23.2536 149.146 26.0434 149.146 29.1878H136.733C136.733 27.0836 136.083 25.4523 134.783 24.2938C133.506 23.1354 131.769 22.5561 129.57 22.5561C127.347 22.5561 125.586 23.0526 124.286 24.0456C123.009 25.0149 122.371 26.2562 122.371 27.7693C122.371 29.0932 123.08 30.299 124.499 31.3865C125.917 32.4505 128.411 33.5616 131.981 34.7201C135.551 35.855 138.483 37.0844 140.776 38.4083C146.356 41.6237 149.146 46.0566 149.146 51.7072C149.146 56.2228 147.443 59.7692 144.039 62.3462C140.634 64.9232 135.965 66.2117 130.031 66.2117C125.846 66.2117 122.052 65.467 118.647 63.9775C115.266 62.4644 112.713 60.4075 110.987 57.8069C109.285 55.1826 108.434 52.1682 108.434 48.7637H120.917C120.917 51.5298 121.626 53.5749 123.045 54.8989C124.487 56.1992 126.816 56.8494 130.031 56.8494C132.088 56.8494 133.707 56.412 134.889 55.5372C136.095 54.6388 136.698 53.3858 136.698 51.7781Z" fill="white"/>
<path d="M186.668 49.7567L190.533 27.1309H201.988L192.945 65.5025H182.838L176.49 42.7349L170.106 65.5025H159.999L150.956 27.1309H162.411L166.205 50.2886L172.305 27.1309H180.639L186.668 49.7567Z" fill="white"/>
<path d="M217.451 65.5025H205.465V27.1309H217.451V65.5025ZM204.755 17.2366C204.755 15.5343 205.37 14.1394 206.6 13.0519C207.829 11.9643 209.425 11.4206 211.387 11.4206C213.349 11.4206 214.945 11.9643 216.175 13.0519C217.404 14.1394 218.019 15.5343 218.019 17.2366C218.019 18.9388 217.404 20.3337 216.175 21.4213C214.945 22.5088 213.349 23.0526 211.387 23.0526C209.425 23.0526 207.829 22.5088 206.6 21.4213C205.37 20.3337 204.755 18.9388 204.755 17.2366Z" fill="white"/>
<path d="M226.035 65.5025V35.4294H220.467V27.1309H226.035V24.0811C226.035 19.7072 227.323 16.3145 229.9 13.903C232.477 11.4915 236.095 10.2857 240.752 10.2857C242.455 10.2857 244.322 10.534 246.356 11.0305L246.391 19.8254C245.658 19.6126 244.677 19.5063 243.448 19.5063C239.83 19.5063 238.022 21.0667 238.022 24.1874V27.1309H245.504V35.4294H238.022V65.5025H226.035Z" fill="white"/>
<path d="M262.174 17.5912V27.1309H268.486V35.4294H262.174V52.9838C262.174 54.426 262.434 55.4308 262.954 55.9982C263.474 56.5657 264.502 56.8494 266.039 56.8494C267.221 56.8494 268.214 56.7784 269.018 56.6366V65.1833C266.867 65.8689 264.621 66.2117 262.28 66.2117C258.166 66.2117 255.128 65.2424 253.166 63.3037C251.204 61.3651 250.222 58.4216 250.222 54.4733V35.4294H245.329V27.1309H250.222V17.5912H262.174Z" fill="white"/>
<path d="M287.106 48.7637L293.489 27.1309H306.292L290.652 71.9214L289.979 73.5527C287.756 78.5176 283.832 81 278.205 81C276.644 81 275.001 80.7636 273.275 80.2908V71.7441H274.836C276.514 71.7441 277.791 71.4958 278.666 70.9993C279.564 70.5265 280.226 69.6635 280.652 68.4105L281.609 65.8571L268.275 27.1309H281.042L287.106 48.7637Z" fill="white"/>
<defs>
<linearGradient id="paint0_linear" x1="0" y1="0" x2="88.5" y2="88.5001" gradientUnits="userSpaceOnUse">
<stop offset="0.199149" stop-color="#FF3364"/>
<stop offset="0.510417" stop-color="#BB34FF"/>
<stop offset="0.807245" stop-color="#3586FF"/>
</linearGradient>
</defs>
</svg>
